<?xml version="1.0" standalone="no"?><!DOCTYPE svg PUBLIC "-//W3C//DTD SVG 1.1//EN" "http://www.w3.org/Graphics/SVG/1.1/DTD/svg11.dtd"><svg class="icon" width="200px" height="200.00px" viewBox="0 0 1024 1024" version="1.1" xmlns="http://www.w3.org/2000/svg"><path fill="#333333" d="M807.152941 222.870588c-78.305882-78.305882-180.705882-120.470588-295.152941-120.470588s-216.847059 42.164706-295.152941 120.470588C132.517647 301.176471 90.352941 409.6 90.352941 524.047059s42.164706 216.847059 126.494118 295.152941c78.305882 78.305882 186.729412 126.494118 295.152941 126.494118s216.847059-42.164706 295.152941-126.494118c78.305882-78.305882 126.494118-186.729412 126.494118-295.152941s-42.164706-222.870588-126.494118-301.176471zM469.835294 349.364706c0-12.047059 6.023529-18.070588 12.047059-30.117647 12.047059-6.023529 18.070588-6.023529 30.117647-6.02353s18.070588 6.023529 30.117647 12.047059c6.023529 6.023529 12.047059 18.070588 12.047059 30.117647V542.117647c0 12.047059-6.023529 18.070588-12.047059 30.117647-12.047059 0-18.070588 6.023529-30.117647 6.02353s-18.070588-6.023529-30.117647-12.047059c-6.023529-12.047059-12.047059-18.070588-12.047059-30.117647V349.364706z m78.305882 367.435294c-12.047059 12.047059-24.094118 18.070588-36.141176 18.070588s-30.117647-6.023529-36.141176-18.070588-18.070588-24.094118-18.070589-36.141176c0-12.047059 6.023529-30.117647 18.070589-36.141177 12.047059-12.047059 24.094118-18.070588 36.141176-18.070588s30.117647 6.023529 36.141176 18.070588c12.047059 12.047059 18.070588 24.094118 18.070589 36.141177 0 12.047059-6.023529 30.117647-18.070589 36.141176z"  /></svg>