<?xml version="1.0" standalone="no"?><!DOCTYPE svg PUBLIC "-//W3C//DTD SVG 1.1//EN" "http://www.w3.org/Graphics/SVG/1.1/DTD/svg11.dtd"><svg class="icon" width="200px" height="200.00px" viewBox="0 0 1024 1024" version="1.1" xmlns="http://www.w3.org/2000/svg"><path fill="#333333" d="M672 416c0 88.384-71.616 160-160 160s-160-71.616-160-160 71.616-160 160-160 160 71.616 160 160z m-64 0c0-52.896-43.104-96-96-96s-96 43.104-96 96 43.104 96 96 96 96-43.104 96-96z"  /><path fill="#333333" d="M512 928c229.76 0 416-186.24 416-416S741.76 96 512 96 96 282.24 96 512s186.24 416 416 416z m0-64a351.04 351.04 0 0 1-256.768-111.232A446.816 446.816 0 0 1 512 672a446.88 446.88 0 0 1 256.768 80.768A351.04 351.04 0 0 1 512 864z m0-256a509.44 509.44 0 0 0-296.16 94.336A350.368 350.368 0 0 1 160 512C160 317.6 317.6 160 512 160s352 157.6 352 352c0 70.08-20.48 135.392-55.808 190.24A510.176 510.176 0 0 0 512 608z"  /></svg>