<?xml version="1.0" standalone="no"?><!DOCTYPE svg PUBLIC "-//W3C//DTD SVG 1.1//EN" "http://www.w3.org/Graphics/SVG/1.1/DTD/svg11.dtd"><svg class="icon" width="200px" height="200.00px" viewBox="0 0 1024 1024" version="1.1" xmlns="http://www.w3.org/2000/svg"><path fill="#333333" d="M512 128a192 192 0 1 0 0 384 192 192 0 0 0 0-384z m-128 192a128 128 0 1 1 256 0 128 128 0 0 1-256 0zM288 576a160 160 0 0 0-160 160v160h768v-160a160 160 0 0 0-160-160H288z m-96 160a96 96 0 0 1 96-96h448a96 96 0 0 1 96 96v96H192v-96z"  /></svg>