<?xml version="1.0" standalone="no"?><!DOCTYPE svg PUBLIC "-//W3C//DTD SVG 1.1//EN" "http://www.w3.org/Graphics/SVG/1.1/DTD/svg11.dtd"><svg class="icon" width="200px" height="200.00px" viewBox="0 0 1024 1024" version="1.1" xmlns="http://www.w3.org/2000/svg"><path fill="#333333" d="M369.664 235.104A105.408 105.408 0 0 1 576 265.408v75.936c0 5.888 4.8 10.656 10.656 10.656h135.68a128 128 0 0 1 126.88 144.928l-38.4 288A128 128 0 0 1 683.936 896H128V480h168.192l73.472-244.896zM288 544H192v288h96v-288z m64 288h331.936a64 64 0 0 0 63.456-55.552l38.4-288A64 64 0 0 0 722.336 416h-135.68A74.656 74.656 0 0 1 512 341.344V265.408a41.408 41.408 0 0 0-81.056-11.904L352 516.704V832z"  /></svg>